<svg width="60" height="60" viewBox="0 0 60 60" fill="none" xmlns="http://www.w3.org/2000/svg">
  <path d="M30 5C19.5066 5 11 13.5066 11 24C11 34.4934 19.5066 43 30 43C40.4934 43 49 34.4934 49 24C49 13.5066 40.4934 5 30 5ZM30 39C21.7157 39 15 32.2843 15 24C15 15.7157 21.7157 9 30 9C38.2843 9 45 15.7157 45 24C45 32.2843 38.2843 39 30 39Z" fill="#4A90E2"/>
  <path d="M30 15C24.4772 15 20 19.4772 20 25C20 30.5228 24.4772 35 30 35C35.5228 35 40 30.5228 40 25C40 19.4772 35.5228 15 30 15ZM30 31C26.6863 31 24 28.3137 24 25C24 21.6863 26.6863 19 30 19C33.3137 19 36 21.6863 36 25C36 28.3137 33.3137 31 30 31Z" fill="#67B26F"/>
</svg> 